<svg width="54" height="79" viewBox="0 0 54 79" fill="none" xmlns="http://www.w3.org/2000/svg">
<path d="M44.9294 7.77739C39.1287 2.63515 31.7461 0.26181 23.9679 1.05292C11.4438 2.5033 1.42454 12.6559 0.23804 25.1819C-0.552957 33.4886 2.4792 41.5316 8.41167 47.2012C12.103 50.7613 14.3441 53.9257 14.6078 59.1998H13.4213C12.103 59.1998 10.9165 60.2546 10.9165 61.705V66.8472C10.9165 68.1658 11.9712 69.3524 13.4213 69.3524H17.2445V71.1984H13.8168C13.0258 71.1984 12.4985 71.7258 12.4985 72.5169C12.4985 73.308 13.0258 73.8354 13.8168 73.8354H17.2445V74.6265C17.2445 76.4725 18.6946 78.0547 20.6721 78.0547H33.3281C35.1737 78.0547 36.7557 76.6043 36.7557 74.6265V73.8354H40.1834C40.9744 73.8354 41.5017 73.308 41.5017 72.5169C41.5017 71.7258 40.9744 71.1984 40.1834 71.1984H36.7557V69.3524H40.5789C41.8972 69.3524 43.0837 68.2976 43.0837 66.8472V61.705C43.0837 60.3865 42.029 59.1998 40.5789 59.1998H39.3924C39.656 54.1894 41.7654 51.025 46.1158 46.6738C51.1255 41.6634 53.894 34.939 53.894 27.819C53.894 20.1715 50.73 12.9196 44.9294 7.77739ZM34.1191 72.5169V74.7584C34.1191 75.1539 33.8554 75.5495 33.3281 75.5495H20.6721C20.2766 75.5495 19.8811 75.2858 19.8811 74.7584V72.6487V69.4843H33.9872V72.5169H34.1191ZM40.447 66.7154H35.4374H18.6946H13.685V61.9687H16.058H38.0741H40.447V66.7154ZM44.2702 44.9598C40.3152 48.9153 37.0194 52.8709 36.7557 59.3317H17.2445C16.9808 53.1346 14.3441 49.3109 10.2573 45.3553C4.85219 40.2131 2.21553 32.9612 2.8747 25.4456C3.92936 14.1063 12.894 4.87664 24.2316 3.68997C31.2187 2.89886 37.9422 5.00849 43.2155 9.75518C48.357 14.37 51.2573 20.9626 51.2573 27.819C51.2573 34.2797 48.8843 40.3449 44.2702 44.9598Z" fill="#2B59C3"/>
</svg>
